<svg xmlns="http://www.w3.org/2000/svg" width="432" height="432" viewBox="0 0 432 432"><path fill="#067092" d="M134.798 215.582c0-21.848-17.71-39.56-39.56-39.56s-39.558 17.712-39.558 39.56 17.71 39.56 39.56 39.56 39.558-17.712 39.558-39.56zm-48.436 30.772l6.523-22.277-22.613-6.622 34.308-32.698-6.523 22.277 22.613 6.622-34.308 32.698z"/><g fill="#231F20"><path d="M147.856 199.63h6.825c4.978 0 7.828 3.75 7.828 8.65 0 4.876-2.85 8.578-7.827 8.578h-6.824V199.63zm4.2 13.502h2.626c2.427 0 3.65-2.325 3.65-4.85 0-2.552-1.224-4.927-3.65-4.927h-2.625v9.777zM175.134 212.908h-5.426l-1.45 3.95h-4.477l6.353-17.227h4.55l6.327 17.23h-4.426l-1.45-3.952zm-4.3-3.6h3.225l-1.677-5.678-1.55 5.677zM197.51 199.63v17.228h-3.65l-5.275-9.402v9.402h-4.175V199.63h3.774l5.152 9.276v-9.276h4.175zM201.61 216.858V199.63h11.178v3.65h-7v3.3h6.15v3.576h-6.15v3.05h7.225v3.652H201.61zM228.34 216.858v-7.75l-6.726-9.478h4.975l3.825 6.25 3.9-6.25h4.95l-6.726 9.552v7.676h-4.2zM248.942 212.908h-5.426l-1.45 3.95h-4.476l6.352-17.227h4.55l6.325 17.23h-4.424l-1.45-3.952zm-4.3-3.6h3.227l-1.677-5.678-1.55 5.677zM270.194 199.63v17.228h-3.648l-5.277-9.402v9.402h-4.177V199.63h3.775l5.152 9.276v-9.276h4.174zM289.198 216.858h-5.727l-4.5-5.25v5.25h-4.175V199.63h4.174v4.926l3.425-4.926h5.227l-6.477 8.5 8.053 8.728zM299.657 199.405c5.145 0 9.24 3.95 9.24 8.852 0 4.852-4.096 8.827-9.24 8.827-5.092 0-9.21-3.975-9.21-8.827 0-4.9 4.118-8.852 9.21-8.852zm0 13.477c2.678 0 4.83-2.05 4.83-4.626s-2.152-4.65-4.83-4.65c-2.676 0-4.775 2.075-4.775 4.65s2.1 4.626 4.775 4.626zM326.646 209.432l3.15-9.802h4.777l-6.143 17.228h-3.385l-2.283-8.376-2.205 8.376h-3.412l-6.09-17.228h4.752l3.123 9.802 2.047-7.326h3.648l2.02 7.326zM337.894 199.63h4.176v17.228h-4.176V199.63zM362.298 213.132c-1.576 2.376-4.25 3.95-7.326 3.95-4.852 0-8.777-3.974-8.777-8.826 0-4.9 3.926-8.852 8.777-8.852 3.076 0 5.777 1.575 7.352 3.95.3-.225-3.477 2.427-3.477 2.427-.8-1.3-2.25-2.175-3.875-2.175-2.55 0-4.55 2.075-4.55 4.65s2 4.626 4.55 4.626c1.65 0 3.076-.85 3.9-2.15l3.426 2.402zM375.522 199.63h4.252v17.228h-4.252v-6.702h-5.25v6.702h-4.176V199.63h4.176v6.8h5.25v-6.8z"/></g><g fill="#067092"><path d="M147.22 231.442l3.413-8.88h.903l3.415 8.88h-.914l-.903-2.332h-4.11l-.89 2.332h-.914zm3.865-7.69l-1.753 4.558h3.505l-1.752-4.56zM162.33 231.442h-1.046l-2.448-3.467h-1.494v3.467h-.863v-8.88h3.298c1.804 0 2.46 1.355 2.46 2.72 0 1.342-.63 2.643-2.356 2.693l2.447 3.467zm-4.988-8.03v3.714h2.37c1.25 0 1.677-.902 1.677-1.844 0-.94-.427-1.87-1.612-1.87h-2.436zM169.85 222.563v.85H167v8.03h-.85v-8.03h-2.85v-.85h6.55zM174.558 231.442v-8.88h3.338c2.513 0 3.93 1.935 3.93 4.462 0 2.512-1.417 4.418-3.93 4.418h-3.338zm.85-.85h2.487c2.048 0 3.08-1.52 3.08-3.567 0-2.05-1.032-3.61-3.08-3.61h-2.487v7.176zM184.706 231.442h-.85v-8.88h.85v8.88zM193.13 231.442h-1.044l-2.448-3.467h-1.494v3.467h-.863v-8.88h3.3c1.804 0 2.462 1.355 2.462 2.72 0 1.342-.632 2.643-2.358 2.693l2.447 3.467zm-4.986-8.03v3.714h2.37c1.25 0 1.677-.902 1.677-1.844 0-.94-.425-1.87-1.61-1.87h-2.436zM200.174 222.563v.85h-4.213v3.248h3.686v.853h-3.685v3.078h4.355v.853h-5.205v-8.88h5.064zM208.97 230.245c-.8.824-1.92 1.326-3.17 1.326-2.512 0-4.303-2.034-4.303-4.546 0-2.527 1.79-4.562 4.303-4.562 1.25 0 2.36.502 3.16 1.326l-.595.592c-.658-.654-1.547-1.068-2.565-1.068-2.048 0-3.453 1.662-3.453 3.713 0 2.047 1.404 3.695 3.453 3.695 1.018 0 1.92-.412 2.58-1.08l.59.605zM216.27 222.563v.85h-2.847v8.03h-.852v-8.03h-2.847v-.85h6.548zM221.42 222.462c2.524 0 4.472 2.035 4.472 4.562 0 2.512-1.947 4.547-4.473 4.547-2.513 0-4.458-2.034-4.458-4.546 0-2.527 1.945-4.562 4.457-4.562zm0 8.258c2.05 0 3.622-1.648 3.622-3.695 0-2.05-1.572-3.713-3.623-3.713-2.05 0-3.608 1.662-3.608 3.713 0 2.046 1.558 3.695 3.607 3.695zM233.718 231.442h-1.043l-2.45-3.467h-1.493v3.467h-.863v-8.88h3.298c1.805 0 2.46 1.355 2.46 2.72 0 1.342-.63 2.643-2.356 2.693l2.446 3.467zm-4.987-8.03v3.714h2.372c1.25 0 1.676-.902 1.676-1.844 0-.94-.426-1.87-1.61-1.87h-2.437zM241.43 225.4c1.02 0 1.856.745 1.856 1.763 0 1.02-.838 1.768-1.855 1.768-1.02 0-1.856-.745-1.856-1.767 0-1.017.837-1.764 1.857-1.764zM250.378 231.442v-8.88h3.338c2.512 0 3.928 1.935 3.928 4.462 0 2.512-1.416 4.418-3.928 4.418h-3.338zm.85-.85h2.488c2.047 0 3.078-1.52 3.078-3.567 0-2.05-1.03-3.61-3.078-3.61h-2.488v7.176zM264.74 222.563v.85h-4.214v3.248h3.684v.853h-3.684v3.078h4.355v.853h-5.206v-8.88h5.065zM269.024 230.72c1.34 0 2.037-.76 2.178-1.455.168-1.094-.684-1.648-1.688-1.88l-1.197-.272c-1.844-.412-2.09-1.48-2.09-2.23 0-1.444 1.367-2.42 2.783-2.42 1.572 0 2.785.99 2.785 2.536h-.852c0-1.032-.836-1.69-1.934-1.69-.98 0-1.933.632-1.933 1.573 0 .465.168 1.12 1.418 1.404l1.21.27c1.42.324 2.59 1.16 2.333 2.86-.205 1.034-1.186 2.153-3.016 2.153-1.752 0-2.873-1.38-2.873-2.68h.85c0 .89.788 1.83 2.024 1.83zM274.87 231.442h-.852v-8.88h.852v8.88zM285.433 227.087c0 3.016-1.598 4.484-4.123 4.484-2.514 0-4.46-2.034-4.46-4.546 0-2.527 1.946-4.562 4.46-4.562 1.084 0 2.062.385 2.836 1.03l-.605.604c-.606-.488-1.38-.785-2.23-.785-2.048 0-3.606 1.663-3.606 3.714 0 2.047 1.56 3.695 3.607 3.695 1.92 0 3.067-1.07 3.17-2.833h-2.59v-.8h3.543zM292.552 231.442l-4.52-7.434v7.434h-.853v-8.88h.915l4.484 7.386v-7.385h.85v8.88h-.878zM301.063 222.563v.85h-4.213v3.248h3.686v.853h-3.686v3.078h4.355v.853h-5.207v-8.88h5.065zM309.048 231.442h-1.045l-2.447-3.467h-1.494v3.467h-.863v-8.88h3.298c1.803 0 2.46 1.355 2.46 2.72 0 1.342-.632 2.643-2.358 2.693l2.448 3.467zm-4.986-8.03v3.714h2.37c1.25 0 1.675-.902 1.675-1.844 0-.94-.426-1.87-1.61-1.87h-2.435zM316.76 225.4c1.017 0 1.854.745 1.854 1.763 0 1.02-.838 1.768-1.855 1.768s-1.856-.745-1.856-1.767c0-1.017.837-1.764 1.855-1.764zM332.587 230.245c-.8.824-1.918 1.326-3.17 1.326-2.512 0-4.303-2.034-4.303-4.546 0-2.527 1.79-4.562 4.303-4.562 1.252 0 2.36.502 3.158 1.326l-.594.592c-.655-.654-1.546-1.068-2.563-1.068-2.047 0-3.453 1.662-3.453 3.713 0 2.047 1.406 3.695 3.453 3.695 1.018 0 1.92-.412 2.578-1.08l.592.605zM340.106 231.442h-1.043l-2.45-3.467h-1.493v3.467h-.863v-8.88h3.3c1.804 0 2.46 1.355 2.46 2.72 0 1.342-.63 2.643-2.357 2.693l2.446 3.467zm-4.986-8.03v3.714h2.37c1.25 0 1.677-.902 1.677-1.844 0-.94-.426-1.87-1.61-1.87h-2.437zM347.15 222.563v.85h-4.214v3.248h3.686v.853h-3.686v3.078h4.355v.853h-5.204v-8.88h5.065zM348.24 231.442l3.413-8.88h.904l3.414 8.88h-.913l-.904-2.332h-4.11l-.888 2.332h-.916zm3.866-7.69l-1.754 4.558h3.506l-1.752-4.56zM362.384 222.563v.85h-2.848v8.03h-.85v-8.03h-2.85v-.85h6.548zM364.892 231.442h-.85v-8.88h.85v8.88zM369.72 230.052l2.23-7.488h.877l-2.654 8.88h-.89l-2.667-8.88h.875l2.23 7.488zM379.626 222.563v.85h-4.215v3.248h3.687v.853h-3.686v3.078h4.356v.853h-5.205v-8.88h5.066z"/></g></svg>